<?xml version="1.0" standalone="no"?>
<!DOCTYPE svg PUBLIC "-//W3C//DTD SVG 20010904//EN"
 "http://www.w3.org/TR/2001/REC-SVG-20010904/DTD/svg10.dtd">
<svg version="1.0" xmlns="http://www.w3.org/2000/svg"
 width="512.000000pt" height="512.000000pt" viewBox="0 0 512.000000 512.000000"
 preserveAspectRatio="xMidYMid meet">
<metadata>
Created by potrace 1.13, written by Peter Selinger 2001-2015
</metadata>
<g transform="translate(0.000000,512.000000) scale(0.100000,-0.100000)"
fill="#000000" stroke="none">
<path d="M2315 5109 c-597 -61 -1142 -319 -1564 -740 -406 -406 -648 -901
-733 -1494 -17 -118 -17 -512 0 -630 85 -593 328 -1088 733 -1494 406 -405
902 -649 1494 -733 118 -17 512 -17 630 0 490 70 928 256 1290 549 515 416
840 999 937 1678 17 118 17 512 0 630 -84 592 -328 1088 -733 1494 -396 396
-880 638 -1449 726 -125 19 -477 28 -605 14z m545 -1224 l0 -424 -122 -3 -123
-3 -3 -116 -3 -116 102 -12 c191 -23 320 -69 373 -131 25 -30 26 -37 26 -141
l0 -109 260 0 260 0 0 175 0 175 305 0 305 0 0 -420 0 -420 -305 0 -305 0 0
155 0 155 -255 0 -255 0 0 -399 0 -398 -22 -24 c-32 -34 -84 -64 -145 -84
l-53 -17 0 -219 0 -219 150 0 150 0 0 185 0 185 310 0 310 0 0 -425 0 -425
-310 0 -310 0 0 155 0 155 -240 0 -240 0 0 288 0 287 -195 0 -195 1 0 -288 0
-288 -225 0 -225 0 0 -150 0 -150 -305 0 -305 0 0 425 0 425 305 0 305 0 0
-190 0 -190 135 0 135 0 0 224 0 225 -70 37 c-114 59 -107 32 -114 454 -4 201
-9 377 -12 393 l-6 27 -226 -2 -227 -3 2 -152 1 -153 -309 0 -309 0 0 420 0
420 310 0 309 0 -2 -175 -2 -175 228 0 227 0 0 94 c0 51 5 107 11 125 24 68
168 131 366 159 l113 15 0 119 0 118 -95 0 -95 0 0 425 0 425 305 0 305 0 0
-425z"/>
<path d="M2330 4125 l0 -85 235 0 235 0 0 85 0 85 -235 0 -235 0 0 -85z"/>
<path d="M2325 3093 c-16 -2 -57 -11 -89 -19 -150 -39 -188 -97 -93 -143 92
-44 170 -55 387 -55 179 0 215 3 285 22 80 22 119 43 139 75 25 40 -75 95
-211 116 -67 10 -352 13 -418 4z"/>
<path d="M960 3000 l0 -80 235 0 235 0 0 80 0 80 -235 0 -235 0 0 -80z"/>
<path d="M3700 3000 l0 -80 240 0 240 0 0 80 0 80 -240 0 -240 0 0 -80z"/>
<path d="M1340 1490 l0 -80 240 0 240 0 0 80 0 80 -240 0 -240 0 0 -80z"/>
<path d="M3280 1475 l0 -85 235 0 235 0 0 85 0 85 -235 0 -235 0 0 -85z"/>
</g>
</svg>
