<?xml version="1.0" standalone="no"?>
<!DOCTYPE svg PUBLIC "-//W3C//DTD SVG 20010904//EN"
 "http://www.w3.org/TR/2001/REC-SVG-20010904/DTD/svg10.dtd">
<svg version="1.0" xmlns="http://www.w3.org/2000/svg"
 width="512.000000pt" height="512.000000pt" viewBox="0 0 512.000000 512.000000"
 preserveAspectRatio="xMidYMid meet">
<metadata>
Created by potrace 1.13, written by Peter Selinger 2001-2015
</metadata>
<g transform="translate(0.000000,512.000000) scale(0.100000,-0.100000)"
fill="#000000" stroke="none">
<path d="M159 5106 c-56 -20 -96 -53 -126 -104 l-28 -47 0 -1435 c0 -1595 -6
-1458 66 -1529 64 -64 71 -66 331 -69 l237 -3 3 -237 c3 -260 5 -267 69 -331
64 -64 71 -66 331 -69 l237 -3 3 -237 c3 -260 5 -267 69 -331 64 -64 71 -66
331 -69 l237 -3 3 -237 c3 -260 5 -267 69 -331 71 -72 -66 -66 1529 -66 1595
0 1458 -6 1529 66 72 71 66 -66 66 1529 0 1595 6 1458 -66 1529 -64 64 -71 66
-331 69 l-237 3 -3 237 c-3 260 -5 267 -69 331 -64 64 -71 66 -331 69 l-237 3
-3 237 c-3 260 -5 267 -69 331 -64 64 -71 66 -331 69 l-237 3 -3 237 c-3 260
-5 267 -69 331 -71 72 64 66 -1514 68 -1144 2 -1427 0 -1456 -11z m2611 -521
l0 -105 -983 -2 -984 -3 -49 -30 c-30 -19 -60 -49 -79 -79 l-30 -49 -3 -984
-2 -983 -105 0 -105 0 0 1170 0 1170 1170 0 1170 0 0 -105z m640 -640 l0 -105
-983 -2 -984 -3 -49 -30 c-30 -19 -60 -49 -79 -79 l-30 -49 -3 -984 -2 -983
-105 0 -105 0 0 1170 0 1170 1170 0 1170 0 0 -105z m640 -640 l0 -105 -983 -2
-984 -3 -49 -30 c-30 -19 -60 -49 -79 -79 l-30 -49 -3 -984 -2 -983 -105 0
-105 0 0 1170 0 1170 1170 0 1170 0 0 -105z m640 -1705 l0 -1170 -1170 0
-1170 0 0 1170 0 1170 1170 0 1170 0 0 -1170z"/>
<path d="M2774 2337 c-2 -8 -3 -56 -2 -108 l3 -94 745 0 745 0 0 105 0 105
-743 3 c-611 2 -743 0 -748 -11z"/>
<path d="M2770 1815 l0 -105 750 0 750 0 0 105 0 105 -750 0 -750 0 0 -105z"/>
<path d="M2770 1385 l0 -105 750 0 750 0 0 105 0 105 -750 0 -750 0 0 -105z"/>
<path d="M2774 1057 c-2 -8 -3 -56 -2 -108 l3 -94 745 0 745 0 0 105 0 105
-743 3 c-611 2 -743 0 -748 -11z"/>
</g>
</svg>
