<?xml version="1.0" standalone="no"?>
<!DOCTYPE svg PUBLIC "-//W3C//DTD SVG 20010904//EN"
 "http://www.w3.org/TR/2001/REC-SVG-20010904/DTD/svg10.dtd">
<svg version="1.0" xmlns="http://www.w3.org/2000/svg"
 width="512.000000pt" height="512.000000pt" viewBox="0 0 512.000000 512.000000"
 preserveAspectRatio="xMidYMid meet">
<metadata>
Created by potrace 1.13, written by Peter Selinger 2001-2015
</metadata>
<g transform="translate(0.000000,512.000000) scale(0.100000,-0.100000)"
fill="#000000" stroke="none">
<path d="M1710 4160 l0 -529 -107 -3 -108 -3 -3 -1180 c-2 -811 1 -1207 8
-1265 19 -143 84 -309 161 -410 126 -162 318 -285 511 -324 101 -21 463 -22
558 -2 167 35 308 112 431 235 90 91 149 179 190 286 61 157 59 99 59 1438 l0
1227 -105 0 -105 0 0 530 0 530 -745 0 -745 0 0 -530z m638 -107 l2 -213 -215
0 -215 0 0 215 0 215 213 -2 212 -3 3 -212z m640 0 l2 -213 -215 0 -215 0 0
215 0 215 213 -2 212 -3 3 -212z"/>
</g>
</svg>
