<?xml version="1.0" encoding="UTF-8" standalone="no"?>
<svg width="512px" height="512px" viewBox="0 0 512 512" version="1.1" xmlns="http://www.w3.org/2000/svg" xmlns:xlink="http://www.w3.org/1999/xlink" xmlns:sketch="http://www.bohemiancoding.com/sketch/ns">
    <!-- Generator: Sketch 3.3 (11970) - http://www.bohemiancoding.com/sketch -->
    <title>Artboard 1</title>
    <desc>Created with Sketch.</desc>
    <defs></defs>
    <g id="Page-1" stroke="none" stroke-width="1" fill="none" fill-rule="evenodd" sketch:type="MSPage">
        <g id="Artboard-1" sketch:type="MSArtboardGroup" fill="#000000">
            <path d="M46.5454545,360.727273 L23.2727273,360.727273 L23.2727273,128 C23.2727273,81.4545455 69.8181818,81.4545455 69.8181818,81.4545455 L442.181818,81.4545455 C442.181818,81.4545455 488.727273,81.4545455 488.727273,128 L488.727273,360.727273 L465.454545,360.727273 L465.454545,127.927319 C465.454545,106.842973 439.834764,104.727273 439.834764,104.727273 L71.6703418,104.727273 C71.6703418,104.727273 46.5454545,106.842973 46.5454545,127.927319 L48.6600611,360.727273 L46.5454545,360.727273 L46.5454545,360.727273 Z M22.5973295,384 C22.5973295,384 0,384 0,407.272727 C2.32727272e-05,430.545455 22.5973295,430.545455 22.5973295,430.545455 L488.653126,430.545455 C488.653126,430.545455 512,430.545455 512,407.272727 C512,384 488.653126,384 488.653126,384 L22.5973295,384 L22.5973295,384 Z M209.454545,395.636364 C209.454545,395.636364 197.818182,395.636364 197.818182,407.272727 C197.818182,418.909091 209.454545,418.909091 209.454545,418.909091 L302.545455,418.909091 C302.545455,418.909091 314.181818,418.909091 314.181818,407.272727 C314.181818,395.636364 302.545455,395.636364 302.545455,395.636364 L209.454545,395.636364 L209.454545,395.636364 Z" id="device-laptop-computer-outline-stroke" sketch:type="MSShapeGroup"></path>
        </g>
    </g>
</svg>