<?xml version="1.0" standalone="no"?>
<!DOCTYPE svg PUBLIC "-//W3C//DTD SVG 20010904//EN"
 "http://www.w3.org/TR/2001/REC-SVG-20010904/DTD/svg10.dtd">
<svg version="1.0" xmlns="http://www.w3.org/2000/svg"
 width="512.000000pt" height="512.000000pt" viewBox="0 0 512.000000 512.000000"
 preserveAspectRatio="xMidYMid meet">
<metadata>
Created by potrace 1.13, written by Peter Selinger 2001-2015
</metadata>
<g transform="translate(0.000000,512.000000) scale(0.100000,-0.100000)"
fill="#000000" stroke="none">
<path d="M2350 5105 c-379 -56 -640 -235 -791 -540 -74 -151 -100 -265 -105
-460 -2 -88 -6 -211 -8 -272 l-3 -113 1116 0 1116 0 -2 78 c-2 42 -4 165 -7
272 -3 170 -7 208 -29 292 -86 325 -295 561 -600 676 -50 19 -132 43 -182 53
-122 26 -377 33 -505 14z"/>
<path d="M1917 3563 c-14 -13 -6 -79 12 -109 11 -18 40 -42 68 -55 41 -20 63
-24 148 -24 105 0 141 11 193 58 18 17 31 57 18 57 -2 0 -99 18 -216 40 -246
46 -215 42 -223 33z"/>
<path d="M3076 3530 c-109 -22 -204 -44 -209 -49 -16 -16 61 -84 110 -99 56
-17 171 -15 225 3 25 9 60 31 78 50 28 29 34 42 34 82 1 41 -2 48 -19 50 -11
0 -110 -16 -219 -37z"/>
<path d="M2041 3215 c-282 -52 -515 -96 -517 -98 -5 -5 41 -174 82 -302 165
-510 396 -784 739 -876 114 -31 316 -31 430 0 369 100 608 409 778 1006 55
192 55 172 -5 184 -29 6 -255 47 -503 91 -247 45 -459 83 -470 85 -11 2 -251
-38 -534 -90z"/>
<path d="M1454 2209 c-339 -154 -669 -321 -790 -401 -240 -158 -393 -360 -525
-690 -100 -250 -168 -653 -125 -737 12 -22 37 -36 123 -70 380 -150 927 -243
1718 -293 263 -16 1138 -16 1405 0 703 44 1222 124 1596 248 169 55 238 88
253 120 41 90 -26 467 -132 739 -134 348 -315 568 -602 735 -157 91 -841 419
-911 436 -18 5 -29 -6 -70 -67 -71 -105 -194 -231 -288 -294 -325 -216 -783
-214 -1100 5 -92 63 -202 178 -277 288 l-55 80 -220 -99z"/>
</g>
</svg>
